<?xml version="1.0" encoding="utf-8"?>
<!-- Generator: Adobe Illustrator 29.7.1, SVG Export Plug-In . SVG Version: 9.03 Build 0)  -->
<svg version="1.0" id="Camada_1" xmlns="http://www.w3.org/2000/svg" xmlns:xlink="http://www.w3.org/1999/xlink" x="0px" y="0px"
	 viewBox="0 0 245.41 187.16" style="enable-background:new 0 0 245.41 187.16;" xml:space="preserve">
<style type="text/css">
	.st0{fill:#66BF6E;}
</style>
<g>
	<path class="st0" d="M114.25,186.66c-22.61-2.54-45.61-14.45-60.5-31.25c-5.03-5.71-10.89-14.4-14.11-21.09
		c-2.34-4.83-5.96-14.36-5.96-15.72c0-1.03,7.81-2.2,14.65-2.2c3.37,0,6.35,0.2,6.64,0.39c0.29,0.2,1.27,2.1,2.1,4.25
		c0.88,2.15,2.25,5.13,3.08,6.59c4.74,8.54,14.16,18.95,22.02,24.32c7.71,5.32,17.58,9.47,27.69,11.62
		c3.27,0.73,6.25,0.93,13.92,0.93c10.74,0,14.36-0.54,22.22-3.27c2.29-0.78,4.83-1.61,5.62-1.86c1.66-0.44,10.4-5.66,14.7-8.79
		c3.91-2.88,10.6-9.67,14.21-14.4l2.93-3.91h8.5c4.69-0.05,10.21-0.24,12.3-0.44l3.86-0.44l-2.44,4.88
		c-8.94,17.77-24.22,32.62-42.77,41.65c-15.19,7.42-32.71,10.55-48.63,8.74H114.25z"/>
	<path class="st0" d="M142.57,136.61c-13.96-1.56-25.29-4.49-37.84-9.72c-2.39-0.98-9.77-4.44-16.36-7.67
		c-13.67-6.69-17.43-8.25-23.93-10.16c-7.42-2.15-11.23-2.59-20.36-2.29c-8.84,0.24-12.3,0.93-17.63,3.32
		c-1.66,0.73-3.03,1.17-3.03,0.93c0-0.73,3.66-5.08,6.49-7.62c3.42-3.17,10.11-6.64,15.48-8.06c3.52-0.93,5.42-1.12,12.45-1.12
		c7.86-0.05,8.64,0.05,14.65,1.61c7.86,2,14.31,4.49,27.1,10.45c5.52,2.54,13.62,6.35,18.07,8.4c16.5,7.67,31.93,13.33,45.02,16.36
		c3.56,0.88,6.93,1.71,7.47,1.95c0.88,0.34,0.88,0.44-0.49,0.98c-4.3,1.71-21,3.37-27.1,2.64H142.57z"/>
	<path class="st0" d="M181.92,121.47c-16.8-2.25-32.91-8.64-88.92-35.11c-10.5-4.98-19.14-7.91-27.34-9.38
		c-5.62-0.93-21.63-0.63-26.86,0.59c-12.6,2.88-24.9,9.18-34.67,17.72c-2.15,1.9-4,3.32-4.1,3.22c-0.34-0.34,2-6.25,4.39-11.08
		c10.01-20.12,27.64-33.59,48.73-37.16c5.37-0.93,18.16-1.07,24.46-0.29c18.51,2.29,30.91,7.03,65.67,25.2
		c33.74,17.58,38.18,19.63,48.54,22.22c16.99,4.3,33.98,2.1,46.83-6.01c2.25-1.42,4.59-2.93,5.22-3.32
		c0.63-0.39,1.32-0.54,1.51-0.34c0.2,0.2-0.68,2.39-1.9,4.93c-10.99,22.12-33.5,32.67-61.57,28.81H181.92z"/>
	<path class="st0" d="M198.96,81.73c-8.89-1.9-17.97-5.96-35.16-15.58c-5.37-3.03-13.57-7.37-18.16-9.72
		c-4.64-2.29-8.25-4.39-8.01-4.64c0.44-0.44,7.18,0.29,12.99,1.42c5.96,1.17,13.43,3.71,27.1,9.23c19.43,7.86,25.88,9.52,37.7,9.91
		c8.5,0.24,12.6-0.24,17.38-2.15c1.66-0.68,3.47-1.17,4.05-1.07c0.88,0.15,0.73,0.44-1.37,3.08c-3.13,3.86-8.15,7.28-13.09,8.89
		c-5.42,1.76-16.75,2.1-23.44,0.63H198.96z"/>
	<path class="st0" d="M202.87,59.75c-2.93-0.78-8.94-2.69-13.28-4.25c-7.71-2.73-8.01-2.88-9.52-5.03
		c-8.25-11.47-20.8-20.61-34.86-25.29c-8.25-2.78-11.77-3.27-21.92-3.22c-8.3,0-9.86,0.15-15.14,1.37
		c-11.57,2.69-21.34,7.32-29.93,14.31l-2.64,2.1h-9.81c-8.64,0-12.01,0.24-17.53,1.22c-0.88,0.15-1.37,0-1.37-0.39
		c0-1.03,6.74-9.13,11.52-13.82C71.92,13.37,89.4,4.44,108.63,1.12c8.69-1.46,21.44-1.51,29.54-0.05
		c28.71,5.22,52.73,22.61,66.8,48.44c1.66,3.08,4.98,10.69,4.98,11.47C209.95,61.47,208.09,61.13,202.87,59.75L202.87,59.75z"/>
</g>
</svg>
